2014022_C5_02_grf
version=1
nRows=27
nColumns=19
inDegrees=no
endheader
time	ground_force_1_vx	ground_force_1_vy	ground_force_1_vz	ground_force_1_px	ground_force_1_py	ground_force_1_pz	ground_force_1_mx	ground_force_1_my	ground_force_1_mz	ground_force_2_vx	ground_force_2_vy	ground_force_2_vz	ground_force_2_px	ground_force_2_py	ground_force_2_pz	ground_force_2_mx	ground_force_2_my	ground_force_2_mz
      0.36200000	      5.87772252	    437.28557229	     20.72841525	      0.15738554	     -0.00200000	     -0.32509901	      0.00000000	     -2.74870380	      0.00000000	      0.00000000	      0.00000000	      0.00000000	      0.00000000	      0.00000000	      0.00000000	      0.00000000	      0.00000000	      0.00000000
      0.36300000	      5.76512516	    441.32532179	     21.00119367	      0.15797909	     -0.00200000	     -0.32506510	      0.00000000	     -2.74290078	      0.00000000	      0.00000000	      0.00000000	      0.00000000	      0.00000000	      0.00000000	      0.00000000	      0.00000000	      0.00000000	      0.00000000
      0.36400000	      5.63306874	    445.39201260	     21.27203196	      0.15857671	     -0.00200000	     -0.32502894	      0.00000000	     -2.73617641	      0.00000000	      0.00000000	      0.00000000	      0.00000000	      0.00000000	      0.00000000	      0.00000000	      0.00000000	      0.00000000	      0.00000000
      0.36500000	      5.47777466	    449.49045777	     21.53977230	      0.15917885	     -0.00200000	     -0.32498996	      0.00000000	     -2.72833969	      0.00000000	      0.00000000	      0.00000000	      0.00000000	      0.00000000	      0.00000000	      0.00000000	      0.00000000	      0.00000000	      0.00000000
      0.36600000	      5.30483574	    453.61280441	     21.80449516	      0.15978414	     -0.00200000	     -0.32494872	      0.00000000	     -2.71964811	      0.00000000	      0.00000000	      0.00000000	      0.00000000	      0.00000000	      0.00000000	      0.00000000	      0.00000000	      0.00000000	      0.00000000
      0.36700000	      5.11111971	    457.76319504	     22.06476256	      0.16039271	     -0.00200000	     -0.32490464	      0.00000000	     -2.70993805	      0.00000000	      0.00000000	      0.00000000	      0.00000000	      0.00000000	      0.00000000	      0.00000000	      0.00000000	      0.00000000	      0.00000000
      0.36800000	      4.90187248	    461.93465590	     22.32091129	      0.16100341	     -0.00200000	     -0.32485831	      0.00000000	     -2.69945579	      0.00000000	      0.00000000	      0.00000000	      0.00000000	      0.00000000	      0.00000000	      0.00000000	      0.00000000	      0.00000000	      0.00000000
      0.36900000	      4.67467075	    466.13071859	     22.57122099	      0.16161609	     -0.00200000	     -0.32480916	      0.00000000	     -2.68806588	      0.00000000	      0.00000000	      0.00000000	      0.00000000	      0.00000000	      0.00000000	      0.00000000	      0.00000000	      0.00000000	      0.00000000
      0.37000000	      4.43433458	    470.34519911	     22.81630486	      0.16222981	     -0.00200000	     -0.32475776	      0.00000000	     -2.67599713	      0.00000000	      0.00000000	      0.00000000	      0.00000000	      0.00000000	      0.00000000	      0.00000000	      0.00000000	      0.00000000	      0.00000000
      0.37100000	      4.17919341	    474.58107769	     23.05416465	      0.16284411	     -0.00200000	     -0.32470359	      0.00000000	     -2.66314271	      0.00000000	      0.00000000	      0.00000000	      0.00000000	      0.00000000	      0.00000000	      0.00000000	      0.00000000	      0.00000000	      0.00000000
      0.37200000	      3.91354738	    478.83290052	     23.28569740	      0.16345829	     -0.00200000	     -0.32464721	      0.00000000	     -2.64971319	      0.00000000	      0.00000000	      0.00000000	      0.00000000	      0.00000000	      0.00000000	      0.00000000	      0.00000000	      0.00000000	      0.00000000
      0.37300000	      3.63650313	    483.10323060	     23.50864932	      0.16407161	     -0.00200000	     -0.32458809	      0.00000000	     -2.63563664	      0.00000000	      0.00000000	      0.00000000	      0.00000000	      0.00000000	      0.00000000	      0.00000000	      0.00000000	      0.00000000	      0.00000000
      0.37400000	      3.35176708	    487.38726974	     23.72421026	      0.16468364	     -0.00200000	     -0.32452677	      0.00000000	     -2.62110377	      0.00000000	      0.00000000	      0.00000000	      0.00000000	      0.00000000	      0.00000000	      0.00000000	      0.00000000	      0.00000000	      0.00000000
      0.37500000	      3.05924448	    491.68717861	     23.92989099	      0.16529334	     -0.00200000	     -0.32446271	      0.00000000	     -2.60607969	      0.00000000	      0.00000000	      0.00000000	      0.00000000	      0.00000000	      0.00000000	      0.00000000	      0.00000000	      0.00000000	      0.00000000
      0.37600000	      2.76198378	    495.99882960	     24.12717789	      0.16590059	     -0.00200000	     -0.32439644	      0.00000000	     -2.59072898	      0.00000000	      0.00000000	      0.00000000	      0.00000000	      0.00000000	      0.00000000	      0.00000000	      0.00000000	      0.00000000	      0.00000000
      0.37700000	      2.46069883	    500.32398105	     24.31338429	      0.16650404	     -0.00200000	     -0.32432739	      0.00000000	     -2.57505379	      0.00000000	      0.00000000	      0.00000000	      0.00000000	      0.00000000	      0.00000000	      0.00000000	      0.00000000	      0.00000000	      0.00000000
      0.37800000	      2.15772982	    504.65905666	     24.49027747	      0.16710390	     -0.00200000	     -0.32425609	      0.00000000	     -2.55918625	      0.00000000	      0.00000000	      0.00000000	      0.00000000	      0.00000000	      0.00000000	      0.00000000	      0.00000000	      0.00000000	      0.00000000
      0.37900000	      1.85458880	    509.00548697	     24.65499341	      0.16769857	     -0.00200000	     -0.32418200	      0.00000000	     -2.54316374	      0.00000000	      0.00000000	      0.00000000	      0.00000000	      0.00000000	      0.00000000	      0.00000000	      0.00000000	      0.00000000	      0.00000000
      0.38000000	      1.55286293	    513.36020231	     24.80956316	      0.16828855	     -0.00200000	     -0.32410566	      0.00000000	     -2.52708659	      0.00000000	      0.00000000	      0.00000000	      0.00000000	      0.00000000	      0.00000000	      0.00000000	      0.00000000	      0.00000000	      0.00000000
      0.38100000	      1.25484989	    517.72418618	     24.95098189	      0.16887199	     -0.00200000	     -0.32402654	      0.00000000	     -2.51102968	      0.00000000	      0.00000000	      0.00000000	      0.00000000	      0.00000000	      0.00000000	      0.00000000	      0.00000000	      0.00000000	      0.00000000
      0.38200000	      0.96135499	    522.09478617	     25.08153021	      0.16944971	     -0.00200000	     -0.32394523	      0.00000000	     -2.49505967	      0.00000000	      0.00000000	      0.00000000	      0.00000000	      0.00000000	      0.00000000	      0.00000000	      0.00000000	      0.00000000	      0.00000000
      0.38300000	      0.67542179	    526.47256851	     25.19808263	      0.17001963	     -0.00200000	     -0.32386119	      0.00000000	     -2.47928715	      0.00000000	      0.00000000	      0.00000000	      0.00000000	      0.00000000	      0.00000000	      0.00000000	      0.00000000	      0.00000000	      0.00000000
      0.38400000	      0.39705500	    530.85529804	     25.30313730	      0.17058285	     -0.00200000	     -0.32377500	      0.00000000	     -2.46374401	      0.00000000	      0.00000000	      0.00000000	      0.00000000	      0.00000000	      0.00000000	      0.00000000	      0.00000000	      0.00000000	      0.00000000
      0.38500000	      0.13002408	    535.24315357	     25.39348304	      0.17113710	     -0.00200000	     -0.32368619	      0.00000000	     -2.44857398	      0.00000000	      0.00000000	      0.00000000	      0.00000000	      0.00000000	      0.00000000	      0.00000000	      0.00000000	      0.00000000	      0.00000000
      0.38600000	     -0.12645370	    539.63446617	     25.47183037	      0.17168380	     -0.00200000	     -0.32359532	      0.00000000	     -2.43376806	     -0.00000000	      0.00000000	      0.00000000	      0.00000000	      0.00000000	      0.00000000	      0.00000000	      0.00000000	      0.00000000	      0.00000000
      0.38700000	     -0.36792728	    544.02890801	     25.53493530	      0.17222053	     -0.00200000	     -0.32350199	      0.00000000	     -2.41949829	      0.00000000	      0.00000000	      0.00000000	      0.00000000	      0.00000000	      0.00000000	      0.00000000	      0.00000000	      0.00000000	      0.00000000
      0.38800000	     -0.59598329	    548.42519760	     25.58567822	      0.17274897	     -0.00200000	     -0.32340673	      0.00000000	     -2.40571906	      0.00000000	      0.00000000	      0.00000000	      0.00000000	      0.00000000	      0.00000000	      0.00000000	      0.00000000	      0.00000000	      0.00000000
